<?xml version="1.0" standalone="no"?><!DOCTYPE svg PUBLIC "-//W3C//DTD SVG 1.1//EN" "http://www.w3.org/Graphics/SVG/1.1/DTD/svg11.dtd"><svg t="1584408917863" class="icon" viewBox="0 0 1024 1024" version="1.1" xmlns="http://www.w3.org/2000/svg" p-id="1166" width="32" height="32" xmlns:xlink="http://www.w3.org/1999/xlink"><defs><style type="text/css"></style></defs><path d="M341.44 760.64c33.92 75.52 82.88 142.72 143.04 198.08-113.6-7.04-216-56-290.88-131.84 45.76-28.16 95.04-50.88 147.84-66.24z" fill="#E0EBFE" p-id="1167"></path><path d="M341.44 760.64c54.4-15.68 111.36-24.64 170.56-24.64v224l-27.52-1.28a607.808 607.808 0 0 1-143.04-198.08zM512 736c59.2 0 116.16 8.96 170.56 24.64a607.808 607.808 0 0 1-143.04 198.08c-9.28 0.32-18.24 1.28-27.52 1.28v-224z" fill="#E0EBFE" p-id="1168"></path><path d="M830.4 826.88c-74.88 75.84-177.28 124.8-290.88 131.84 60.16-55.36 109.12-122.56 143.04-198.08 52.8 15.36 102.08 38.08 147.84 66.24zM539.52 65.28c113.6 7.04 216 56 290.88 131.84-45.76 28.16-95.04 50.88-147.84 66.24a607.808 607.808 0 0 0-143.04-198.08zM484.48 65.28a607.808 607.808 0 0 0-143.04 198.08c-52.8-15.36-102.08-38.08-147.84-66.24 74.88-75.84 177.28-124.8 290.88-131.84z" fill="#E0EBFE" p-id="1169"></path><path d="M512 64v224c-59.2 0-116.16-8.96-170.56-24.64 33.92-75.52 82.88-142.72 143.04-198.08 9.28-0.32 18.24-1.28 27.52-1.28z" fill="#E0EBFE" p-id="1170"></path><path d="M539.52 65.28c60.16 55.36 109.12 122.56 143.04 198.08-54.4 15.68-111.36 24.64-170.56 24.64V64c9.28 0 18.24 0.96 27.52 1.28z" fill="#E0EBFE" p-id="1171"></path><path d="M171.488 849.952l0.416 0.416a479.04 479.04 0 0 0 311.104 140.32l27.52 1.28L512 992c6.272 0 12.384-0.352 18.56-0.736l10.912-0.608a478.784 478.784 0 0 0 310.656-140.32l0.384-0.32 0.64-0.64C942.72 758.784 992 638.976 992 512s-49.312-246.784-138.816-337.344c-82.752-83.84-193.44-133.984-312.544-141.344l-10.08-0.576c-4.928-0.32-9.92 0.064-14.848 0C514.432 32.64 513.312 32 512 32s-2.432 0.608-3.712 0.736c-4.96 0.064-9.92-0.32-14.848 0l-10.912 0.608a478.816 478.816 0 0 0-311.68 141.28C81.28 265.216 32 385.024 32 512s49.312 246.784 138.816 337.344l0.64 0.64z m455.168 61.216a632.736 632.736 0 0 0 71.904-111.584c26.208 9.056 52.16 20.096 77.568 33.344a413.856 413.856 0 0 1-149.472 78.24z m197.216-124.864a640.544 640.544 0 0 0-99.36-45.504A634.784 634.784 0 0 0 766.304 544h160.128a412.384 412.384 0 0 1-102.56 242.304zM926.432 480h-160.128a634.752 634.752 0 0 0-41.792-196.8 640.64 640.64 0 0 0 99.36-45.504A412.32 412.32 0 0 1 926.4 480z m-150.304-288.96c-25.44 13.28-51.36 24.32-77.568 33.376a632.064 632.064 0 0 0-71.808-111.488 413.472 413.472 0 0 1 149.376 78.144zM544 115.456c36.48 38.08 67.2 80.48 91.84 126.72-30.656 6.784-61.344 10.912-91.84 12.672V115.424z m0 203.424a648.576 648.576 0 0 0 118.976-17.568A571.712 571.712 0 0 1 702.336 480H544V318.848zM544 544h158.304a571.84 571.84 0 0 1-39.36 178.72A648.736 648.736 0 0 0 544 705.152V544z m0 225.184a581.76 581.76 0 0 1 91.84 12.672 570.24 570.24 0 0 1-91.84 126.72v-139.392z m-296.128 63.744c25.44-13.248 51.36-24.32 77.568-33.344a632 632 0 0 0 71.808 111.488 413.44 413.44 0 0 1-149.376-78.144zM480 908.576a570.048 570.048 0 0 1-91.84-126.72 581.76 581.76 0 0 1 91.84-12.672v139.392z m0-203.424c-39.584 2.08-79.36 8-118.976 17.568A571.712 571.712 0 0 1 321.664 544H480v161.152zM480 480h-158.304a571.84 571.84 0 0 1 39.36-178.72c39.584 9.6 79.36 15.488 118.944 17.568V480z m0-225.184a581.76 581.76 0 0 1-91.84-12.64c24.64-46.272 55.36-88.64 91.84-126.752v139.392z m-82.656-141.984a632.64 632.64 0 0 0-71.904 111.584c-26.208-9.056-52.16-20.096-77.568-33.344a413.888 413.888 0 0 1 149.472-78.24zM200.128 237.696A640.544 640.544 0 0 0 299.488 283.2 634.848 634.848 0 0 0 257.696 480H97.568a412.384 412.384 0 0 1 102.56-242.304zM257.696 544a634.752 634.752 0 0 0 41.792 196.8 640.64 640.64 0 0 0-99.36 45.504A412.32 412.32 0 0 1 97.6 544h160.128z" fill="#5465CF" p-id="1172"></path></svg>