<?xml version="1.0" encoding="UTF-8" standalone="no"?>
<!-- Created with Inkscape (http://www.inkscape.org/) -->

<svg
   xmlns:dc="http://purl.org/dc/elements/1.1/"
   xmlns:cc="http://creativecommons.org/ns#"
   xmlns:rdf="http://www.w3.org/1999/02/22-rdf-syntax-ns#"
   xmlns:svg="http://www.w3.org/2000/svg"
   xmlns="http://www.w3.org/2000/svg"
   xmlns:xlink="http://www.w3.org/1999/xlink"
   xmlns:sodipodi="http://sodipodi.sourceforge.net/DTD/sodipodi-0.dtd"
   xmlns:inkscape="http://www.inkscape.org/namespaces/inkscape"
   width="240.92"
   height="78.906998"
   viewBox="0 0 240.92 78.906994"
   id="svg3431"
   version="1.1"
   inkscape:version="0.91 r13725"
   sodipodi:docname="bluetooth smart.svg">
  <defs
     id="defs3433">
	
	

		
		
	</defs>
  <sodipodi:namedview
     id="base"
     pagecolor="#ffffff"
     bordercolor="#666666"
     borderopacity="1.0"
     inkscape:pageopacity="0.0"
     inkscape:pageshadow="2"
     inkscape:zoom="3.6309218"
     inkscape:cx="189.58028"
     inkscape:cy="38.9535"
     inkscape:document-units="px"
     inkscape:current-layer="layer1"
     showgrid="false"
     fit-margin-top="0"
     fit-margin-left="0"
     fit-margin-right="0"
     fit-margin-bottom="0"
     units="px"
     inkscape:window-width="1280"
     inkscape:window-height="744"
     inkscape:window-x="-4"
     inkscape:window-y="-4"
     inkscape:window-maximized="1" />
  <metadata
     id="metadata3436">
    <rdf:RDF>
      <cc:Work
         rdf:about="">
        <dc:format>image/svg+xml</dc:format>
        <dc:type
           rdf:resource="http://purl.org/dc/dcmitype/StillImage" />
        <dc:title></dc:title>
      </cc:Work>
    </rdf:RDF>
  </metadata>
  <g
     inkscape:label="Layer 1"
     inkscape:groupmode="layer"
     id="layer1"
     transform="translate(-1112.5189,-812.4087)">
    <g
       id="g3559"
       transform="translate(0.49999908,-0.50000348)">
      <g
         transform="translate(1093.0009,798.2087)"
         id="g3444">
			<defs
   id="defs3446">
				<rect
   id="SVGID_1_"
   x="19"
   y="14.895"
   width="250"
   height="61.701" />

			</defs>

			<clipPath
   id="SVGID_2_">
				<use
   height="100%"
   width="100%"
   y="0"
   x="0"
   style="overflow:visible"
   xlink:href="#SVGID_1_"
   overflow="visible"
   id="use3450" />

			</clipPath>

			<path
   style="clip-rule:evenodd;fill:#231f20;fill-rule:evenodd"
   inkscape:connector-curvature="0"
   clip-path="url(#SVGID_2_)"
   d="m 82.164,47.963 2.343,0 c 4.325,0 5.961,2.163 5.961,6.497 0,4.272 -1.402,6.493 -5.264,6.493 l -3.041,0 0,-12.99 0.001,0 z m 0,-17.297 2.751,0 c 3.213,0 4.737,2.041 4.737,5.957 0,3.504 -2.104,5.38 -4.855,5.38 l -2.633,0 0,-11.337 0,0 z m -7.249,36.245 11.462,0 c 8.241,0 11.343,-5.255 11.343,-12.219 0,-5.434 -2.164,-8.359 -5.847,-10 3.51,-1.406 5.026,-5.199 5.026,-8.826 0,-7.201 -3.449,-11.173 -11.226,-11.173 l -10.758,0 0,42.218 0,0 z"
   id="path3452" />

			<polygon
   style="fill:#231f20"
   clip-path="url(#SVGID_2_)"
   points="107.137,24.693 100.586,24.693 100.586,66.911 107.137,66.911 107.137,66.911 "
   id="polygon3454" />

			<path
   style="fill:#231f20"
   inkscape:connector-curvature="0"
   clip-path="url(#SVGID_2_)"
   d="m 124.675,35.451 0,24.677 c -1.522,1.115 -2.806,1.985 -4.214,1.985 -1.4,0 -2.337,-0.69 -2.337,-2.275 l 0,-24.387 -6.552,0 0,25.437 c 0,4.094 2.05,6.604 5.498,6.604 3.807,0 5.206,-1.393 7.958,-3.735 l 0,3.155 6.191,0 0,-31.46 -6.544,0 0,-10e-4 z"
   id="path3456" />

			<path
   style="clip-rule:evenodd;fill:#231f20;fill-rule:evenodd"
   inkscape:connector-curvature="0"
   clip-path="url(#SVGID_2_)"
   d="m 141.795,47.038 0,-1.644 c 0,-3.626 1.283,-5.144 3.627,-5.144 2.337,0 3.619,1.518 3.619,5.144 l 0,1.644 -7.246,0 0,0 z m 13.797,-0.47 c 0,-6.909 -2.687,-11.695 -10.17,-11.695 -7.488,0 -10.178,4.786 -10.178,11.695 l 0,9.241 c 0,6.896 2.689,11.682 10.178,11.682 7.311,0 10.056,-4.551 10.17,-11.227 l -6.551,0 0,0.703 c 0,3.628 -1.282,5.146 -3.619,5.146 -2.344,0 -3.627,-1.518 -3.627,-5.146 l 0,-4.552 13.797,0 0,-5.847 0,0 z"
   id="path3458" />

			<path
   style="fill:#231f20"
   inkscape:connector-curvature="0"
   clip-path="url(#SVGID_2_)"
   d="m 161.367,40.83 0,19.588 c 0,4.796 2.746,7.073 7.667,7.073 1.63,0 2.39,-0.11 3.27,-0.345 l 0,-5.613 -2.162,0 c -1.52,0 -2.222,-0.938 -2.222,-2.578 l 0,-18.125 4.384,0 0,-5.379 -4.384,0 0,-8.467 -6.553,0 0,8.467 -3.624,0 0,5.379 3.624,0 0,0 z"
   id="path3460" />

			<path
   style="clip-rule:evenodd;fill:#231f20;fill-rule:evenodd"
   inkscape:connector-curvature="0"
   clip-path="url(#SVGID_2_)"
   d="m 188.842,56.968 c 0,3.628 -1.295,5.146 -3.629,5.146 -2.34,0 -3.626,-1.518 -3.626,-5.146 l 0,-11.573 c 0,-3.626 1.286,-5.144 3.626,-5.144 2.334,0 3.629,1.518 3.629,5.144 l 0,11.573 0,0 z M 175.036,55.81 c 0,6.896 2.689,11.682 10.177,11.682 7.479,0 10.169,-4.786 10.169,-11.682 l 0,-9.241 c 0,-6.909 -2.689,-11.695 -10.169,-11.695 -7.487,0 -10.177,4.786 -10.177,11.695 l 0,9.241 0,0 z"
   id="path3462" />

			<path
   style="clip-rule:evenodd;fill:#231f20;fill-rule:evenodd"
   inkscape:connector-curvature="0"
   clip-path="url(#SVGID_2_)"
   d="m 212.625,56.968 c 0,3.628 -1.284,5.146 -3.629,5.146 -2.332,0 -3.627,-1.518 -3.627,-5.146 l 0,-11.573 c 0,-3.626 1.295,-5.144 3.627,-5.144 2.345,0 3.629,1.518 3.629,5.144 l 0,11.573 0,0 z M 198.829,55.81 c 0,6.896 2.691,11.682 10.167,11.682 7.488,0 10.18,-4.786 10.18,-11.682 l 0,-9.241 c 0,-6.909 -2.691,-11.695 -10.18,-11.695 -7.476,0 -10.167,4.786 -10.167,11.695 l 0,9.241 0,0 z"
   id="path3464" />

			<path
   style="fill:#231f20"
   inkscape:connector-curvature="0"
   clip-path="url(#SVGID_2_)"
   d="m 224.777,40.83 0,19.588 c 0,4.796 2.745,7.073 7.654,7.073 1.64,0 2.399,-0.11 3.284,-0.345 l 0,-5.613 -2.165,0 c -1.52,0 -2.223,-0.938 -2.223,-2.578 l 0,-18.125 4.388,0 0,-5.379 -4.388,0 0,-8.467 -6.551,0 0,8.467 -3.625,0 0,5.379 3.626,0 0,0 z"
   id="path3466" />

			<path
   style="fill:#231f20"
   inkscape:connector-curvature="0"
   clip-path="url(#SVGID_2_)"
   d="m 246.336,66.911 0,-24.675 c 1.517,-1.115 2.812,-1.985 4.206,-1.985 1.407,0 2.347,0.704 2.347,2.277 l 0,24.383 6.549,0 0,-25.432 c 0,-4.097 -2.056,-6.606 -5.504,-6.606 -3.793,0 -5.2,1.406 -7.598,3.504 l 0,-13.684 -6.553,0 0,42.218 6.553,0 0,0 z"
   id="path3468" />

			<path
   style="clip-rule:evenodd;fill:#0060a9;fill-rule:evenodd"
   inkscape:connector-curvature="0"
   clip-path="url(#SVGID_2_)"
   d="m 44.554,30.309 5.061,5.062 -5.057,5.059 -0.004,-10.121 0,0 z m 0,30.965 5.061,-5.063 -5.057,-5.044 -0.004,10.107 0,0 z M 39.156,45.797 28.227,34.833 l 3.168,-3.169 8.709,8.703 0,-20.875 15.841,15.842 -10.462,10.463 10.463,10.448 -15.842,15.844 0,-20.874 -8.709,8.702 -3.168,-3.169 10.929,-10.951 0,0 z m 2.929,30.583 c 13.36,0 22.562,-6.347 22.562,-30.584 0,-24.251 -9.202,-30.596 -22.562,-30.596 -13.352,0 -22.567,6.345 -22.567,30.596 0,24.237 9.215,30.584 22.567,30.584 l 0,0 z"
   id="path3470" />

		</g>
      <g
         transform="translate(1093.0009,798.2087)"
         id="g3474">
		<g
   id="g3476">
			<path
   id="path3478"
   d="m 196.476,87.869 c 0.356,1.324 0.99,3.062 3.233,3.062 1.934,0 2.637,-1.323 2.637,-2.404 0,-1.555 -0.92,-2.107 -2.59,-2.855 -1.899,-0.876 -4.004,-1.866 -4.004,-4.548 0,-2.116 1.45,-4.753 4.81,-4.753 3.914,0 4.823,3.165 5.02,3.892 l -2.418,0.792 c -0.185,-0.654 -0.749,-2.509 -2.623,-2.509 -1.314,0 -2.177,0.967 -2.177,2.177 0,1.369 0.796,1.828 2.97,2.866 1.543,0.747 3.695,1.771 3.695,4.372 0,1.233 -0.553,5.146 -5.479,5.146 -4.479,0 -5.203,-3.35 -5.468,-4.579 l 2.394,-0.659 z"
   inkscape:connector-curvature="0"
   style="fill:#0060a9" />

			<path
   id="path3480"
   d="m 209.332,76.682 3.719,0 1.036,12.05 5.099,-12.05 3.821,0 -2.706,16.113 -2.497,0 2.372,-13.824 -5.999,13.824 -1.852,0 -1.302,-13.546 -2.198,13.546 -2.211,0 2.718,-16.113 z"
   inkscape:connector-curvature="0"
   style="fill:#0060a9" />

			<path
   id="path3482"
   d="m 233.872,92.795 -2.637,0 -0.426,-4.202 -4.432,0 -1.76,4.202 -2.464,0 7.056,-16.113 2.75,0 1.913,16.113 z m -3.786,-13.386 -2.854,7.101 3.36,0 -0.506,-7.101 z"
   inkscape:connector-curvature="0"
   style="fill:#0060a9" />

			<path
   id="path3484"
   d="m 238.13,76.682 4.361,0 c 1.865,0 4.916,0.217 4.916,4.108 0,3.626 -2.256,4.488 -3.072,4.811 l 1.889,7.194 -2.789,0 -1.666,-6.769 -2.648,0 -1.116,6.769 -2.556,0 2.681,-16.113 z m 1.348,7.297 1.889,0 c 0.793,0 1.54,-0.069 2.312,-0.609 0.922,-0.646 1.117,-1.981 1.117,-2.603 0,-1.955 -1.337,-2.084 -2.704,-2.084 l -1.738,0 -0.876,5.296 z"
   inkscape:connector-curvature="0"
   style="fill:#0060a9" />

			<path
   id="path3486"
   d="m 252.357,78.878 -3.626,0 0.355,-2.196 9.819,0 -0.367,2.196 -3.627,0 -2.313,13.917 -2.568,0 2.327,-13.917 z"
   inkscape:connector-curvature="0"
   style="fill:#0060a9" />

		</g>

	</g>
    </g>
  </g>
</svg>
